<svg xmlns="http://www.w3.org/2000/svg" width="780" height="320" viewBox="0 0 780 320" version="1.1"><path d="M 281.595 66.080 C 271.197 68.793, 262.084 71.515, 261.345 72.129 C 260.007 73.239, 259.497 77.164, 260.553 78.220 C 260.857 78.524, 263.219 78.120, 265.803 77.323 C 268.386 76.526, 275.675 74.575, 282 72.988 C 301.118 68.191, 303.949 66.872, 303.985 62.750 C 304.006 60.334, 303.106 60.468, 281.595 66.080 M 608.137 82.257 C 604.809 93.468, 603.781 109.707, 604.248 143.733 C 604.592 168.781, 604.987 175.604, 606.372 180.441 C 608.798 188.909, 610.055 191.126, 613.898 193.713 C 618.319 196.689, 624.037 196.662, 630.538 193.634 C 636.771 190.732, 642.083 184.800, 649.342 172.636 C 652.413 167.489, 656.518 161.372, 658.463 159.044 C 663.494 153.023, 663 150.945, 656.233 149.662 C 654.437 149.322, 650.387 147.826, 647.233 146.339 C 639.691 142.782, 634.053 142.668, 630.482 146 C 627.085 149.169, 623.644 155.905, 621.520 163.543 C 618.840 173.178, 619.131 172.821, 616.473 169.748 C 610.869 163.270, 609.591 149.520, 611.042 111.332 C 611.666 94.925, 612.249 80.194, 612.338 78.598 C 612.654 72.936, 610.294 74.992, 608.137 82.257 M 374.645 86.750 L 371.975 95.500 371.987 136.750 C 371.995 160.224, 372.384 178, 372.891 178 C 374.374 178, 376.906 170.482, 378.497 161.356 C 379.644 154.778, 379.997 144.426, 379.986 117.619 C 379.973 84.083, 379.675 78, 378.041 78 C 377.642 78, 376.114 81.938, 374.645 86.750 M 280.619 85.770 C 277.644 91.523, 276.752 100.743, 276.388 129.500 C 275.930 165.759, 274.334 175.478, 267.633 182.845 C 264.716 186.052, 261.299 187.692, 255.987 188.431 C 249.325 189.359, 248.531 188.427, 250.422 181.897 C 253.986 169.591, 254.927 157.532, 255.040 122.683 C 255.148 89.582, 254.736 84.820, 252.187 89.689 C 251.666 90.685, 250.415 94.875, 249.407 99 C 247.837 105.428, 247.559 111.144, 247.464 139 C 247.340 175.488, 246.385 184.661, 242.657 185.193 C 240.660 185.477, 240.505 186.055, 240.567 193 C 240.668 204.233, 244.960 211.470, 252.221 212.648 C 261.579 214.167, 273.014 200.114, 277.821 181.187 C 278.820 177.250, 279.902 173.765, 280.223 173.444 C 280.545 173.122, 282.282 175.625, 284.084 179.006 C 289.671 189.489, 299.779 196.202, 316.746 200.698 C 325.771 203.089, 328.070 203.281, 347.500 203.267 C 369.196 203.250, 374.491 202.691, 394 198.361 C 423.081 191.906, 459.863 174.574, 490.747 152.773 C 495.561 149.374, 502.669 144.480, 506.543 141.897 C 514.283 136.735, 523.855 126.455, 522.335 124.935 C 521.757 124.357, 514.067 128.775, 502.160 136.525 C 471.724 156.334, 459.719 162.479, 435.991 170.396 C 409.529 179.225, 386.897 183, 360.433 183 C 320.699 183, 296.655 173.993, 288.626 156.101 C 284.539 146.993, 284 141.785, 284 111.364 C 284 93.620, 283.635 83, 283.026 83 C 282.490 83, 281.407 84.247, 280.619 85.770 M 441.442 87.377 C 441.009 89.102, 441.533 90.442, 443.353 92.262 C 448.222 97.132, 448.834 105.447, 444.878 113 C 442.087 118.328, 440.483 120, 438.159 120 C 436.051 120, 434.531 123.053, 435.114 126.116 C 435.259 126.877, 435.034 128.952, 434.614 130.728 C 433.486 135.497, 434.609 138, 437.876 138 C 444.513 138, 449.337 128.782, 445.538 123.358 C 444.209 121.460, 444.386 120.649, 447.493 114.386 C 453.289 102.703, 453.627 95.484, 448.716 88.270 C 446.003 84.283, 442.331 83.833, 441.442 87.377 M 561.187 89.274 C 560.559 90.031, 559.508 92.979, 558.851 95.825 C 557.547 101.474, 556.385 102.382, 555.413 98.511 C 554.804 96.083, 548.818 90, 547.038 90 C 545.460 90, 542 95.195, 542 97.563 C 542 100.986, 544.551 103.040, 547.957 102.359 C 550.395 101.871, 551.064 102.223, 552.321 104.655 C 553.138 106.234, 554.126 109.658, 554.517 112.263 C 554.907 114.868, 555.591 117, 556.036 117 C 556.984 117, 558.615 112.169, 559.582 106.500 C 560.658 100.182, 561.399 99.331, 565.416 99.800 C 568.537 100.165, 569.094 99.884, 570.005 97.486 C 572.096 91.986, 564.674 85.074, 561.187 89.274 M 200 93.018 C 178.071 97.600, 174.611 98.559, 172.996 100.504 C 171.303 102.545, 172.490 105, 175.170 105 C 176.399 105, 181.250 104.115, 185.952 103.033 C 190.653 101.951, 200.125 99.885, 207 98.443 C 220.471 95.617, 224 94.067, 224 90.977 C 224 88.252, 221.998 88.422, 200 93.018 M 652 100.143 C 639.217 103.658, 623.071 109.210, 622.049 110.441 C 620.489 112.321, 621.137 115.543, 623.038 115.357 C 624.517 115.212, 643.005 109.637, 653.040 106.310 C 657.715 104.760, 658.546 104.104, 658.816 101.750 C 659.169 98.686, 658.162 98.448, 652 100.143 M 346.323 106.250 C 343.342 109.561, 343.167 110.033, 341.927 118.103 C 340.795 125.472, 339.095 130.523, 339.030 126.710 C 338.980 123.739, 335.285 117.417, 331.967 114.626 C 327.639 110.984, 325.223 111.223, 323.449 115.468 C 321.569 119.968, 321.614 120.614, 323.979 122.979 C 325.423 124.423, 326.751 124.800, 328.886 124.373 C 332.663 123.617, 334.592 126.384, 336.371 135.106 C 337.659 141.418, 337.670 141.433, 339.269 138.971 C 340.787 136.634, 342.933 129.404, 344.750 120.500 C 345.512 116.768, 345.832 116.466, 349.533 116 C 353.278 115.528, 353.517 115.293, 353.807 111.807 C 354.030 109.127, 353.550 107.550, 352.057 106.057 C 349.459 103.459, 348.816 103.481, 346.323 106.250 M 193.820 110.496 C 192.900 112.515, 192.989 113.331, 194.286 114.764 C 199.573 120.606, 201.325 131.315, 198.511 140.591 C 196.664 146.678, 196.659 146.527, 198.663 144.872 C 199.577 144.118, 201.102 141.700, 202.052 139.500 C 206.186 129.922, 205.279 118.221, 199.896 111.690 C 196.309 107.338, 195.345 107.149, 193.820 110.496 M 575.577 113.878 C 574.230 116.011, 572.476 119.274, 571.679 121.128 C 570.882 122.983, 566.573 132.011, 562.103 141.190 C 554.002 157.828, 551.856 160.695, 546.185 162.457 L 543.869 163.176 545.935 159.128 C 548.909 153.297, 548.633 149.710, 544.971 146.629 C 541.279 143.523, 536.695 142.569, 528.872 143.278 C 520.713 144.018, 513.600 147.628, 513.185 151.240 C 512.874 153.942, 512.931 153.971, 517.345 153.366 C 521.216 152.836, 522.113 153.074, 523.983 155.126 C 527.686 159.191, 533.027 168.147, 532.376 169.200 C 531.236 171.045, 525.114 173, 520.477 173 C 517.954 173, 513.876 172.083, 511.415 170.961 C 507.755 169.294, 506.284 169.104, 503.337 169.917 C 496.007 171.941, 487.788 179.588, 483.148 188.701 C 479.719 195.437, 476.926 203.071, 477.532 204.051 C 477.840 204.550, 480.659 202.340, 483.796 199.140 C 490.372 192.433, 493.471 191.492, 504 193 C 507.575 193.512, 512.232 193.657, 514.349 193.322 C 520.191 192.397, 526.915 187.162, 532.843 178.925 C 537.996 171.763, 538.366 171.473, 543.271 170.733 C 551.123 169.548, 553.744 167.085, 562.963 152.231 C 569.035 142.446, 574.275 140.742, 583.382 145.590 C 587.569 147.819, 588.445 147.984, 589.658 146.771 C 590.959 145.470, 596.988 130.583, 596.996 128.651 C 597.010 125.408, 593.219 120.700, 588.351 117.915 C 585.364 116.206, 582.211 113.726, 581.345 112.404 C 579.215 109.153, 578.434 109.352, 575.577 113.878 M 221.144 118.410 C 219.341 121.385, 216.632 127.123, 215.125 131.160 C 213.618 135.197, 210.574 141.650, 208.360 145.500 C 206.146 149.350, 203.757 153.959, 203.050 155.741 C 201.648 159.277, 196.538 163, 193.087 163 C 191.889 163, 189.784 161.875, 188.409 160.500 C 187.034 159.125, 185.512 158, 185.027 158 C 184.542 158, 183.026 160.363, 181.659 163.250 C 176.546 174.043, 168.756 177.471, 159.500 173 C 157.300 171.937, 154.245 171.053, 152.710 171.034 C 149.268 170.992, 143.192 174.015, 138.582 178.062 C 132.308 183.571, 120.559 204.959, 122.656 207.056 C 123.367 207.767, 125.293 205.891, 128.835 201.036 C 132.497 196.017, 135.256 193.364, 138.401 191.836 L 142.820 189.689 148.894 191.960 C 157.392 195.139, 162.018 194.326, 168.697 188.483 C 171.497 186.034, 176.123 180.390, 178.977 175.940 C 182.994 169.678, 184.544 168.004, 185.834 168.529 C 195.346 172.405, 198.492 170.888, 207.277 158.189 C 214.743 147.396, 219.192 145.802, 228.188 150.699 C 234.314 154.033, 235.457 153.497, 239.410 145.435 C 242.700 138.727, 243.880 129.508, 241.780 126.928 C 241.076 126.063, 237.987 123.753, 234.916 121.796 C 231.844 119.838, 228.405 117.059, 227.272 115.618 C 226.139 114.178, 225.035 113, 224.817 113 C 224.600 113, 222.947 115.434, 221.144 118.410 M 155.958 117.078 C 155.346 118.221, 155.058 119.708, 155.316 120.382 C 155.575 121.057, 154.712 123.384, 153.399 125.554 C 150.377 130.546, 150.309 134.403, 153.207 136.432 L 155.414 137.978 152.207 141.287 C 149.232 144.356, 148.066 147, 149.688 147 C 150.066 147, 152.915 145.005, 156.020 142.566 C 160.397 139.127, 162.648 138.061, 166.049 137.816 C 169.756 137.549, 170.788 136.974, 172.717 134.102 C 175.617 129.787, 175.628 125.930, 172.750 123.267 C 170.978 121.628, 158.638 115, 157.358 115 C 157.200 115, 156.570 115.935, 155.958 117.078 M 156.466 128.055 C 155.618 129.427, 157.841 131.113, 160 130.735 C 160.825 130.591, 161.500 129.804, 161.500 128.986 C 161.500 127.173, 157.472 126.428, 156.466 128.055 M 165.655 129.458 C 165.240 130.539, 165.677 131, 167.115 131 C 168.254 131, 168.991 130.472, 168.771 129.813 C 168.154 127.961, 166.310 127.751, 165.655 129.458 M 630.783 156.180 C 628.474 157.954, 626.374 163.366, 625.517 169.750 L 624.812 175 628.210 175 C 634.748 175, 648.020 166.087, 647.992 161.715 C 647.981 159.977, 640.884 156.162, 636.350 155.458 C 633.860 155.071, 631.894 155.326, 630.783 156.180 M 221.500 166.013 C 220.400 166.501, 212.525 169.565, 204 172.822 C 189.812 178.242, 188.473 178.966, 188.184 181.372 C 187.919 183.570, 188.262 184, 190.277 184 C 193.230 184, 200.628 181.495, 212.505 176.473 C 222.949 172.057, 225 170.559, 225 167.345 C 225 164.815, 224.571 164.652, 221.500 166.013 M 566.591 172.378 C 549.746 177.537, 547.033 179.038, 548.350 182.470 C 549.148 184.550, 548.863 184.606, 569.857 178.248 C 581.964 174.581, 585.375 173.164, 585.975 171.549 C 586.881 169.112, 586.237 166.961, 584.643 167.100 C 584.014 167.155, 575.891 169.530, 566.591 172.378 M 651.731 178.560 C 650.216 181.068, 648.276 184.781, 647.420 186.810 L 645.863 190.500 649.792 194 C 651.952 195.925, 655.920 198.309, 658.610 199.298 L 663.500 201.096 665.587 198.486 C 667.424 196.188, 672.037 184.850, 672.010 182.699 C 672.005 182.258, 670.370 181.217, 668.378 180.385 C 666.386 179.552, 663.020 177.775, 660.898 176.436 C 658.776 175.096, 656.465 174, 655.763 174 C 655.060 174, 653.246 176.052, 651.731 178.560 M 450 191.618 C 435.953 195.925, 433.624 196.997, 433.168 199.364 C 432.493 202.870, 434.501 203.326, 441.161 201.178 C 444.647 200.053, 451.084 198.178, 455.465 197.011 C 464.575 194.583, 466 193.686, 466 190.378 C 466 187.155, 464.066 187.305, 450 191.618 M 173.627 203.032 C 172.223 204.700, 170.286 207.400, 169.322 209.032 C 166.870 213.184, 164.086 212.821, 157.553 207.500 C 154.514 205.025, 151.234 203.015, 150.264 203.033 C 148.382 203.068, 141.476 213.110, 140.545 217.163 C 140.179 218.761, 140.778 220.364, 142.441 222.232 C 145.556 225.731, 153.843 231, 156.232 231 C 157.412 231, 159.534 228.669, 162.148 224.500 C 164.389 220.925, 166.336 218, 166.474 218 C 166.612 218, 168.474 219.395, 170.612 221.099 C 172.751 222.804, 176.222 225.081, 178.326 226.159 C 182.906 228.504, 183.435 228.194, 189.105 219.845 C 193.427 213.481, 193.992 210.450, 191.032 209.510 C 189.950 209.167, 186.349 206.887, 183.030 204.443 C 179.710 201.999, 176.811 200, 176.586 200 C 176.362 200, 175.030 201.364, 173.627 203.032 M 401.507 226.446 C 399.908 228.809, 399.560 230.788, 399.749 236.446 C 400.013 244.364, 398.761 248.568, 395.918 249.311 C 393.663 249.901, 393.586 249.635, 395.243 246.983 C 398.003 242.563, 392.867 239.824, 385.794 241.944 C 381.492 243.232, 380.804 245.483, 384.433 246.394 C 388.902 247.516, 388.577 254, 384.052 254 C 381.588 254, 377.955 258.264, 377.068 262.197 C 376.085 266.555, 377.285 269.717, 380.471 271.169 C 381.862 271.802, 383 272.752, 383 273.278 C 383 273.805, 381.253 275.982, 379.118 278.118 C 375.872 281.363, 374.564 282, 371.141 282 C 365.284 282, 363.521 279.076, 364.342 270.720 C 364.678 267.299, 365.241 263.262, 365.593 261.750 C 366.837 256.406, 364.175 259.025, 362.092 265.194 C 358.411 276.094, 359.761 287.196, 365.116 290.062 C 372.919 294.238, 385.963 281.248, 385.990 269.273 C 385.998 265.862, 385.518 264.730, 383.500 263.408 C 380.450 261.409, 380.284 260, 383.099 260 C 384.253 260, 386.393 258.721, 387.853 257.157 C 389.370 255.533, 392.088 254.018, 394.194 253.623 C 398.085 252.893, 402.560 248.610, 403.543 244.673 C 403.842 243.478, 403.954 238.225, 403.793 233 L 403.500 223.500 401.507 226.446 M 371.552 228.250 C 371.340 228.938, 370.913 230.671, 370.602 232.101 C 370.270 233.628, 368.361 235.864, 365.980 237.514 C 361.113 240.886, 361.943 242.834, 367.470 241.010 C 371.355 239.728, 372.527 237.811, 373.625 230.941 C 374.055 228.257, 373.886 227, 373.096 227 C 372.459 227, 371.764 227.563, 371.552 228.250 M 358.750 229.055 C 357.788 229.629, 357 230.752, 357 231.550 C 357 233.207, 358.578 233.492, 359.500 232 C 359.840 231.450, 360.858 231, 361.762 231 C 362.925 231, 362.323 232.109, 359.703 234.792 C 356.437 238.137, 354.564 242.739, 356.837 241.833 C 358.664 241.105, 367.081 230.742, 366.725 229.658 C 366.224 228.129, 360.966 227.732, 358.750 229.055 M 386.447 230.059 C 384.452 232.263, 385.054 234.370, 388.258 236.391 C 389.471 237.156, 390.405 236.944, 391.941 235.553 C 394.480 233.256, 394.537 231.796, 392.171 229.655 C 389.780 227.491, 388.701 227.567, 386.447 230.059 M 276.750 240.351 C 273.620 243.257, 273.039 245.636, 275.750 244.445 C 278.738 243.132, 285 242.714, 285 243.828 C 285 244.398, 284.169 245.129, 283.154 245.451 C 282.139 245.773, 278.427 248.536, 274.904 251.590 C 269.680 256.119, 268.010 257.045, 265.840 256.614 C 262.561 255.963, 262 257.179, 262 264.934 C 262 269.280, 261.439 271.537, 259.726 274.078 C 256.502 278.862, 251.431 282, 246.924 282 C 240.254 282, 237.865 277.359, 240.284 269.105 C 241.685 264.329, 241.604 263, 239.914 263 C 238.866 263, 236.134 271.580, 235.455 277 C 234.388 285.521, 240.151 291.945, 247.606 290.546 C 254.824 289.192, 262.970 278.588, 265.120 267.750 C 265.747 264.587, 266.729 262, 267.301 262 C 267.874 262, 269.170 261.251, 270.181 260.336 C 271.757 258.910, 272.370 258.860, 274.476 259.987 C 276.436 261.036, 277.234 261.051, 278.427 260.060 C 280.543 258.304, 281.356 255.134, 280.084 253.601 C 279.250 252.596, 280.147 251.586, 284.005 249.188 C 289.422 245.820, 292.139 241.739, 290.232 239.832 C 289.619 239.219, 286.954 238.511, 284.309 238.258 C 280.182 237.864, 279.110 238.161, 276.750 240.351 M 371.115 245.581 C 369.449 247.698, 369.298 248.504, 370.271 250.062 C 372.174 253.110, 374.191 253.264, 376.887 250.568 L 379.400 248.055 377.026 245.527 C 374.071 242.382, 373.628 242.386, 371.115 245.581 M 450.857 252.030 C 446.108 257.022, 445.110 260.359, 447.558 263.064 C 449.705 265.436, 448.389 267.373, 444.515 267.543 C 443.167 267.602, 440.469 268.510, 438.518 269.560 C 433.534 272.244, 431.645 270.842, 431 263.982 C 430.407 257.675, 429.296 258.488, 426.672 267.152 C 425.021 272.600, 421.178 277.210, 415.421 280.646 C 414.149 281.405, 413.838 282.123, 414.500 282.770 C 416.133 284.366, 425.325 280.900, 426.487 278.250 C 427.647 275.607, 428.311 275.465, 430 277.500 C 430.685 278.325, 432.503 279, 434.041 279 C 436.157 279, 437.362 278.150, 438.999 275.501 C 440.708 272.736, 441.628 272.120, 443.388 272.561 C 445.186 273.013, 447.134 271.566, 453.535 265.027 C 457.892 260.576, 461.827 256.274, 462.278 255.467 C 463.381 253.497, 461.526 253.576, 458.016 255.650 C 456.480 256.557, 454.505 257.024, 453.628 256.688 C 451.311 255.798, 452.767 253, 455.548 253 C 458.452 253, 459.558 251.377, 457.964 249.456 C 456.129 247.245, 455.030 247.643, 450.857 252.030 M 512.098 252.149 C 511.494 253.881, 511 259.214, 511 264 C 511 274.600, 509.793 278.584, 506.316 279.457 C 504.912 279.809, 503.617 279.950, 503.437 279.771 C 503.258 279.591, 503.525 277.656, 504.031 275.472 C 505.259 270.176, 505.262 255, 504.035 255 C 501.757 255, 500.588 259.769, 500.810 268.160 C 500.985 274.801, 500.684 277.173, 499.519 278.338 C 497.485 280.372, 497.606 281.719, 499.934 282.965 C 503.439 284.840, 507.019 284.134, 510.215 280.938 C 512.375 278.779, 513.590 278.190, 514.338 278.938 C 516.541 281.141, 521.727 280.119, 525.010 276.836 C 529.792 272.054, 531.781 265.173, 527.177 269.339 C 525.104 271.216, 523.405 271.464, 522.513 270.021 C 521.404 268.226, 523.988 265, 526.535 265 C 528.333 265, 529 264.459, 529 263 C 529 257.951, 520.445 262.873, 518.484 269.050 C 518.125 270.183, 517.306 270.936, 516.665 270.724 C 515.900 270.470, 515.403 266.675, 515.216 259.669 C 514.925 248.740, 514.035 246.593, 512.098 252.149 M 344.200 253.200 C 342.662 254.738, 342.571 275.471, 344.084 279.810 C 344.680 281.520, 346.116 283.219, 347.275 283.587 C 350.160 284.503, 355 279.114, 355 274.984 C 355 271.580, 354.287 271.239, 352.419 273.750 C 351.391 275.132, 350.737 275.268, 349.309 274.394 C 347.779 273.457, 347.456 271.648, 347.216 262.644 C 347.060 256.790, 346.588 252, 346.166 252 C 345.745 252, 344.860 252.540, 344.200 253.200 M 354.674 252.750 C 354.430 253.162, 353.919 255.387, 353.537 257.692 C 353.156 259.998, 352.204 262.416, 351.422 263.065 C 350.640 263.714, 350 264.915, 350 265.734 C 350 266.911, 350.784 267.077, 353.750 266.527 C 355.813 266.144, 358.288 265.124, 359.250 264.260 C 361.611 262.142, 361.477 258.937, 359 258.290 C 357.583 257.919, 357 256.926, 357 254.883 C 357 252.207, 355.701 251.015, 354.674 252.750 M 408.625 255.979 C 406.834 260.456, 406.284 279.440, 407.917 280.449 C 409.612 281.496, 411.900 271.582, 412.158 262.069 C 412.445 251.524, 411.239 249.445, 408.625 255.979 M 320.975 256.565 C 320.439 257.976, 320 262.546, 320 266.720 C 320 274.244, 319.966 274.342, 316.093 278.026 C 309.542 284.259, 301.267 284.130, 298.208 277.747 C 297.156 275.554, 297.132 273.817, 298.085 268.976 C 299.996 259.261, 297.126 259.566, 295.032 269.299 C 292.534 280.914, 294.824 289.143, 300.927 290.484 C 308.325 292.109, 316.280 287.214, 320.603 278.379 C 322.925 273.633, 323.497 270.965, 323.832 263.306 C 324.118 256.750, 323.900 254, 323.095 254 C 322.465 254, 321.512 255.154, 320.975 256.565 M 331.510 265.977 C 330.048 269.219, 329.951 270.235, 330.981 271.477 C 331.676 272.315, 332.898 273, 333.696 273 C 336.520 273, 334.443 276.493, 330.239 278.812 C 324.905 281.754, 324.679 283.469, 329.750 282.522 C 334.150 281.700, 335.619 280.638, 337.566 276.872 C 339.308 273.504, 339.456 264.856, 337.800 263.200 C 335.555 260.955, 333.332 261.936, 331.510 265.977 M 275.671 265.379 C 274.209 267.611, 274.263 267.898, 276.546 270.043 C 278.842 272.200, 279.084 272.234, 280.846 270.639 C 282.513 269.131, 282.849 269.114, 283.979 270.475 C 285.681 272.525, 288.329 272.399, 290.345 270.171 C 292.624 267.653, 292.424 266.324, 289.474 264.391 C 287.124 262.851, 286.822 262.851, 285.118 264.393 C 283.482 265.873, 283.152 265.888, 282.021 264.525 C 280.170 262.295, 277.452 262.661, 275.671 265.379 M 305.655 265.829 C 303.534 268.172, 303.570 269.300, 305.829 271.345 C 308.347 273.624, 309.676 273.424, 311.609 270.474 C 313.158 268.109, 313.150 267.823, 311.477 265.974 C 309.255 263.519, 307.779 263.482, 305.655 265.829 M 248.010 267.490 C 245.739 269.907, 245.724 270.038, 247.491 271.990 C 248.491 273.095, 250.070 274, 251 274 C 251.930 274, 253.509 273.095, 254.509 271.990 C 256.276 270.038, 256.261 269.907, 253.990 267.490 C 252.704 266.120, 251.358 265, 251 265 C 250.642 265, 249.296 266.120, 248.010 267.490 M 486.615 267.750 C 485.825 269.262, 483.798 271.813, 482.110 273.417 C 479.175 276.208, 478.875 276.279, 475.180 275.059 C 471.887 273.973, 470.864 274.019, 468.247 275.372 C 464.507 277.306, 461 281.582, 461 284.207 C 461 286.079, 461.092 286.073, 463.695 284.025 C 465.960 282.244, 467.207 282.007, 471.500 282.543 C 476.284 283.141, 476.912 282.950, 481.373 279.545 C 484.717 276.993, 486.734 276.098, 488.140 276.544 C 490.352 277.247, 494 274.607, 494 272.305 C 494 270.681, 489.985 265, 488.838 265 C 488.405 265, 487.405 266.238, 486.615 267.750 M 280.174 273.314 C 277.427 276.239, 277.450 276.594, 280.526 278.609 C 282.891 280.158, 283.177 280.150, 285.026 278.477 C 287.481 276.255, 287.518 274.779, 285.171 272.655 C 282.839 270.545, 282.767 270.554, 280.174 273.314 M 430.974 284.527 L 428.600 287.055 431.152 289.607 L 433.704 292.159 436.602 289.663 L 439.500 287.168 437.076 284.584 C 434.091 281.403, 433.911 281.401, 430.974 284.527" stroke="none" fill="#fffcfc" fill-rule="evenodd"/><path d="" stroke="none" fill="#fcfcfc" fill-rule="evenodd"/></svg>